<?xml version="1.0" encoding="utf-8"?>
<!-- Generator: Adobe Illustrator 15.0.0, SVG Export Plug-In . SVG Version: 6.00 Build 0)  -->
<!DOCTYPE svg PUBLIC "-//W3C//DTD SVG 1.1 Tiny//EN" "http://www.w3.org/Graphics/SVG/1.1/DTD/svg11-tiny.dtd">
<svg version="1.1" baseProfile="tiny" id="Layer_1" xmlns="http://www.w3.org/2000/svg" xmlns:xlink="http://www.w3.org/1999/xlink"
	 x="0px" y="0px" width="52px" height="220px" viewBox="0 0 52 220" overflow="inherit" xml:space="preserve">
<path fill="#FFFFFF" d="M45.694,187.857c-1.918,1.025-3.771,2.411-5.814,4.469c-1.116,1.118-3.273,3.438-5.642,6.455
	c-1.83,2.316-3.843,5.107-5.687,7.88c-0.858,1.29-1.677,2.567-2.44,3.791c0.246-1.359,0.453-2.834,0.626-4.538l1.309-13.527
	c1.057-11.19,2.257-24.398,3.26-37.053c1.012-12.653,1.794-24.756,2.224-33.703c0.438-8.946,0.565-14.731,0.571-14.731
	c-0.012,0,0.205-5.78,0.217-14.753c0.011-8.97-0.275-21.146-1.371-33.849c-0.539-6.351-1.266-12.829-2.124-19.1
	c-0.429-3.136-0.889-6.221-1.366-9.215l-0.725-4.418l-0.716-4.126c-0.667-3.741-1.257-6.8-1.56-8.326
	C25.331,7.479,24.058,4.421,21.941,0c-0.125,4.937-0.073,8.239,0.991,13.849c0.286,1.519,0.866,4.559,1.524,8.273l0.709,4.094
	l0.72,4.381c0.472,2.968,0.928,6.024,1.353,9.13c0.852,6.211,1.571,12.621,2.106,18.903c1.088,12.565,1.377,24.62,1.371,33.518
	c-0.007,8.9-0.219,14.646-0.208,14.646c-0.005,0-0.136,5.745-0.575,14.648c-0.433,8.902-1.218,20.961-2.23,33.585
	c-1.004,12.624-2.205,25.814-3.258,36.994l-1.283,13.52c-0.067,0.726-0.12,1.411-0.161,2.066c-0.281-0.753-0.582-1.509-0.922-2.262
	c-1.916-4.303-4.736-8.38-7.014-11.227c-1.631-2.048-3.039-3.588-3.847-4.451c-1.972-2.099-3.706-3.539-5.465-4.735
	c-1.764-1.187-3.554-2.146-5.753-3.096c1.509,1.902,2.688,3.533,4.01,5.15c1.312,1.625,2.754,3.244,4.62,5.271
	c0.764,0.833,2.103,2.31,3.645,4.252c2.155,2.699,4.792,6.531,6.528,10.426c0.877,1.939,1.533,3.878,1.937,5.599l0.141,0.635
	l0.062,0.309c0.022,0.124,0.032,0.137,0.076,0.412c0.156,0.853,0.248,1.699,0.313,2.538c0.014,0.454,0.05,0.845,0.04,1.321
	l-0.007,0.687c0.001,0.107-0.005,0.23-0.012,0.353l-0.009,0.182c0.015,0.024,0.044,0.02,0.065,0.03l0.803,0.254l0.614,0.205
	l0.128,0.047c0.019,0.008,0.048,0.029,0.447,0.126l0.831,0.229l0.38,0.108l0.11,0.032c0.039,0.007,0.076-0.118,0.114-0.172
	l0.229-0.423l0.972-1.735l0.967-1.666l0.831-1.394l1.132-1.846c0.792-1.271,1.656-2.616,2.557-3.965
	c1.798-2.698,3.754-5.406,5.514-7.639c2.28-2.909,4.321-5.111,5.358-6.171l4.814-4.894c1.443-1.418,2.795-2.815,4.787-4.16
	C49.622,186.15,47.611,186.853,45.694,187.857z"/>
</svg>
