<?xml version="1.0" encoding="utf-8"?>
<!-- Generator: Adobe Illustrator 15.0.0, SVG Export Plug-In . SVG Version: 6.00 Build 0)  -->
<!DOCTYPE svg PUBLIC "-//W3C//DTD SVG 1.1 Tiny//EN" "http://www.w3.org/Graphics/SVG/1.1/DTD/svg11-tiny.dtd">
<svg version="1.1" baseProfile="tiny" id="Layer_1" xmlns="http://www.w3.org/2000/svg" xmlns:xlink="http://www.w3.org/1999/xlink"
	 x="0px" y="0px" width="187px" height="36px" viewBox="0 0 187 36" overflow="inherit" xml:space="preserve">
<g>
	<path fill-rule="evenodd" fill="#FFFFFF" d="M104.632,25.705c0.129,4.424-7.365,4.809-11.777,3.562
		C96.033,28.142,100.869,26.974,104.632,25.705z"/>
	<path fill-rule="evenodd" fill="#FFFFFF" d="M11.777,27.04c0.749-0.387,0.554-0.395,1.132,0.223
		c-0.17,1.281-2.288-0.31-1.585,1.114c-0.803-0.398-2.368-0.047-3.17-0.445c5.947,3.669,15.909-0.476,12.456-8.017
		c-3.884-4.564-12.393-4.459-17.892-6.68C1.339,12.679,0.385,11.71,0,10.341C2.881,7.634,13.125,0.9,18.571,0.099
		c4.952-0.729,7.597,2.694,4.982,6.458c-1.365,0.623-2.441,0.327-3.397-0.446c-0.058-1.318,0.347-2.183,0.453-3.34
		C14.103,3.425,8.958,7.347,4.077,10.341c1.405,1.259,3.628,1.351,6.341,2.003c6.083,1.463,11.933,3.313,13.815,9.129
		c0,0.742,0,1.485,0,2.227c1.865-1.803,2.246-5.065,5.209-5.788c0.303,0.444,0.528,0.965,1.132,1.112
		c-0.788,3.287-3.566,4.58-3.85,7.793c1.11,0.127,1.609-0.348,2.039-0.89c0.541,0.711,0.135,0.94,1.812,0.667
		c-0.356,0.146-1.667,2.392-1.132,1.782c-1.737,1.978-4.447,2.532-6.115,0c0-0.595,0-1.188,0-1.782
		c-1.968,3.545-5.813,6.44-12.456,5.566c-2.788-0.366-5.011-2.395-7.021-2.226c-5.846-3.771,1.803-5.759,6.794-4.23
		C11.154,25.86,12.26,26.457,11.777,27.04z"/>
	<path fill-rule="evenodd" fill="#FFFFFF" d="M149.247,14.126c0.386-0.082,0.428,0.173,0.453,0.445
		c0.546,0.091,0.492-0.406,1.132-0.223C150.651,15.27,149.429,14.942,149.247,14.126z"/>
	<path fill-rule="evenodd" fill="#FFFFFF" d="M51.184,14.571c-2.129,3.446-2.992,9.152-5.889,12.915
		c-1.801,2.339-6.819,7.635-8.606,2.226c-5.479,3.459-5.98-5.434-3.397-8.016c0.28-0.72-0.733-0.17-0.453-0.89
		c1.543-0.042,1.446-1.696,2.944-1.782c2.814,2.16-1.223,4.475-0.906,7.57c1.809-1.635,1.002-5.842,4.077-6.233
		c2.264,2.095-1.171,5.739,0.453,8.683c4.807-2.325,5.749-8.449,8.606-12.691c-0.306-1.557,0.592-3.271,1.585-4.231
		c-1.161-1.5-4.399-1.004-6.568-1.113c-4.963-0.25-9.041-0.695-13.362,0.223c-0.506-0.542-1.36-0.742-1.132-2.004
		c1.454-0.131,1.873-0.558,2.265-0.668c0.834-0.473,1.998,0.45,2.944-0.445c2.722,0.489,7.8-1.134,10.644,0.445
		c2.318-0.116,5.282-0.848,8.153-0.445c0.479,0.067,0.887,0.004,1.132,0.667c9.504,0.505,21.805,2.075,29.895,6.458
		c0.069,1.033-0.002,1.927-0.453,2.449c-3.775,0.529-9.391,3.036-12.683,3.341c-4.134,1.947-7.394,4.753-11.098,7.125
		c0.197,1.462-1.886,2.413-2.944,3.784c-0.323,0.419-0.095,0.939-0.453,1.337c-0.179,0.198-0.849,0.185-1.132,0.444
		c-1.601,1.471-2.121,3.326-4.982,1.56C47.813,27.977,50.413,21.865,51.184,14.571z M52.542,32.607
		c3.472-4.38,7.333-8.377,12.003-11.578c3.044-1.263,7.442-3.404,10.191-4.009c0.722-0.158,1.598,0.196,2.491-1.113
		c-7.059-1.861-15.54-3.365-23.1-4.008C54.465,19.102,51.619,24.866,52.542,32.607z"/>
	<path fill-rule="evenodd" fill="#FFFFFF" d="M114.37,3.661c-0.716,1.46-2.15,0.725-3.624,0.668
		C102.93,4.026,95.212,6.98,89.685,9.45c7.602,2.838,16.501,3.657,18.57,12.246c1.219-0.212,2.588-0.276,4.077-0.223
		c0.65,0.548,1.472,0.929,1.812,1.782c3.317-0.858,5.695-1.984,9.059-1.782c3.501,0.212,6.997,3.104,10.871,0.891
		c5.65-0.274,7.526,4.078,12.909,4.676c3.544,0.395,6.188-0.148,9.059-0.89c6.721-0.007,11.933-2.002,17.213-1.337
		c1.398-1.341,3.982-0.151,5.888-0.891c-9.965-3.896-29.382-8.125-40.312-9.352c-1.407-0.158-5.874,2.074-6.341-0.445
		c-0.196-1.059,0.529-1.163,0.905-2.004c2.082-0.259,4.042-0.514,4.304,0.891c1.288,0.26,2.347-0.712,2.717,0.668
		c0.979-0.608,1.691-0.167,2.944-0.891c1.335,0.14-0.396,1.096,0.906,1.558c1.033,0.274-0.021-1.505,0.68-1.558
		c1.457,0.724,2.097-0.218,2.491,1.113c0.419-0.034,0.139-0.754,0.453-0.891c11.218,1.881,27.738,3.932,38.953,10.687
		c0.384,1.071,0.006,1.867-0.452,2.672c-7.359,0.673-14.093,1.441-20.61,1.782c-6.078,0.317-11.615,1.556-17.891,2.004
		c-2.045,0.146-4.45-0.413-6.568-1.337c-1.464-0.638-3.904-3.222-6.567-3.339c-1.821-0.081-3.185,1.307-5.209,1.112
		c-2.854-0.272-5.093-2.224-9.286-1.781c-3.312,0.35-7.967,3.592-9.738-0.223c-0.84-0.157-0.972,0.381-1.812,0.223
		c-0.566,4.564-3.815,6.492-7.247,8.239c-8.179,0.522-14.448-1.163-19.477-5.566c0.682-2.276,2.775-1.635,5.208-1.336
		c6.266,0.769,12.75-2.648,17.891-3.786c-1.628-5.291-7.927-7.096-14.494-8.906c-2.364-0.651-6.794-2.07-6.794-3.785
		c0-1.599,4.18-2.677,6.115-3.562c6.611-3.023,15.853-6.047,23.78-4.008C113.844,2.694,114.047,3.236,114.37,3.661z M150.832,14.349
		c-0.64-0.184-0.586,0.314-1.132,0.223c-0.025-0.271-0.067-0.527-0.453-0.445C149.429,14.942,150.651,15.27,150.832,14.349z
		 M92.855,29.267c4.412,1.247,11.906,0.862,11.777-3.562C100.869,26.974,96.033,28.142,92.855,29.267z"/>
</g>
</svg>
